<svg xmlns="http://www.w3.org/2000/svg" viewBox="0 0 32 32">
  <!-- فاوآیکون — نسخه‌ی ساده‌شده‌ی لوگوی اصلی (تقویم + حلقه‌ی لینک) روی زمینه‌ی مشکی -->
  <rect width="32" height="32" rx="7" fill="#111111"/>
  <g fill="none" stroke="#ffffff" stroke-width="2" stroke-linecap="round" stroke-linejoin="round">
    <rect x="6" y="7.5" width="17" height="16" rx="2.5"/>
    <path d="M19 5v5M10 5v5M6 14h17"/>
  </g>
  <g transform="translate(15.2 15.4) scale(0.62)" fill="none" stroke-linecap="round" stroke-linejoin="round">
    <g stroke="#111111" stroke-width="5.4">
      <path d="M10 13a5 5 0 0 0 7.54.54l3-3a5 5 0 0 0-7.07-7.07l-1.72 1.71"/>
      <path d="M14 11a5 5 0 0 0-7.54-.54l-3 3a5 5 0 0 0 7.07 7.07l1.71-1.71"/>
    </g>
    <g stroke="#ffffff" stroke-width="2.4">
      <path d="M10 13a5 5 0 0 0 7.54.54l3-3a5 5 0 0 0-7.07-7.07l-1.72 1.71"/>
      <path d="M14 11a5 5 0 0 0-7.54-.54l-3 3a5 5 0 0 0 7.07 7.07l1.71-1.71"/>
    </g>
  </g>
</svg>
